<svg width="231" height="231" viewBox="0 0 231 231" fill="none" xmlns="http://www.w3.org/2000/svg">
<circle cx="115.5" cy="115.5" r="115.5" fill="#F4F4F4"/>
<g filter="url(#filter0_d_2123_5385)">
<path d="M111.638 78.0089C113.592 86.6885 113.311 95.7221 110.822 104.263C108.09 112.835 103.985 120.907 98.6675 128.163C99.1166 128.613 98.8989 128.476 99.4569 129.021L100.818 127.211C106.277 119.787 111.16 111.957 115.422 103.787C126.31 83.3714 140.805 65.6779 157.778 50.0395L166.162 42.3359L189 69.8018C186.605 71.6937 184.291 73.5039 182.004 75.3277C167.322 86.8398 153.953 99.935 142.139 114.376C132.465 126.18 124.662 139.4 119.001 153.574C118.865 153.887 118.743 154.2 118.593 154.513C118.593 154.595 118.457 154.649 118.389 154.717C115.667 145.095 115.667 124.924 131.999 105.039L130.516 103.678C128.461 106.591 126.433 109.122 124.731 111.981C120.458 119.049 116.284 126.172 112.21 133.349C102.355 150.573 89.9671 166.219 75.4617 179.761C72.0727 182.986 68.6564 186.144 65.1994 189.288C64.8047 189.655 64.3964 189.982 63.8383 190.418L41 162.952L43.3274 161.114C57.9536 150.037 71.4155 137.5 83.5054 123.699C95.0199 110.238 104.656 95.6617 111.121 79.1114C111.271 78.7847 111.475 78.3764 111.638 78.0089Z" fill="url(#paint0_linear_2123_5385)"/>
<path d="M101.958 90.1625L101.482 88.8014C99.5085 82.6223 94.8537 79.8321 88.4976 81.0979C83.2554 82.3273 78.4123 84.8706 74.4244 88.4884C71.539 90.911 68.885 93.6195 65.9995 96.3144C58.718 85.5894 51.3547 74.8779 43.8281 63.8126C46.5502 61.39 49.1498 58.8584 51.9944 56.5991C61.3175 49.1814 71.6887 44.0367 83.6251 42.4579C89.1142 41.5562 94.7398 41.9904 100.026 43.7236C107.171 46.2688 110.914 51.5224 111.731 58.9129C112.38 65.9048 111.075 72.9396 107.961 79.2333C106.395 82.6767 104.422 85.916 102.625 89.237C102.429 89.5636 102.206 89.8732 101.958 90.1625Z" fill="#132A35"/>
<path d="M186.647 167.881C183.014 171.79 178.961 175.286 174.561 178.307C166.425 184.16 157 187.969 147.082 189.413C141.868 190.253 136.533 189.932 131.457 188.474C127.959 187.526 124.85 185.496 122.574 182.676C120.298 179.855 118.972 176.387 118.786 172.767C118.236 165.52 119.686 158.26 122.978 151.78C124.57 148.364 126.476 145.097 128.245 141.763L128.667 141.844C128.83 142.321 128.994 142.797 129.143 143.205C131.117 149.221 135.949 152.011 142.128 150.705C147.603 149.373 152.645 146.66 156.773 142.824C159.495 140.538 161.904 137.992 164.558 135.461L186.647 167.881Z" fill="#FAEC6E"/>
</g>
<defs>
<filter id="filter0_d_2123_5385" x="37" y="42" width="156" height="156.418" filterUnits="userSpaceOnUse" color-interpolation-filters="sRGB">
<feFlood flood-opacity="0" result="BackgroundImageFix"/>
<feColorMatrix in="SourceAlpha" type="matrix" values="0 0 0 0 0 0 0 0 0 0 0 0 0 0 0 0 0 0 127 0" result="hardAlpha"/>
<feOffset dy="4"/>
<feGaussianBlur stdDeviation="2"/>
<feComposite in2="hardAlpha" operator="out"/>
<feColorMatrix type="matrix" values="0 0 0 0 0 0 0 0 0 0 0 0 0 0 0 0 0 0 0.65 0"/>
<feBlend mode="normal" in2="BackgroundImageFix" result="effect1_dropShadow_2123_5385"/>
<feBlend mode="normal" in="SourceGraphic" in2="effect1_dropShadow_2123_5385" result="shape"/>
</filter>
<linearGradient id="paint0_linear_2123_5385" x1="57.9042" y1="160.543" x2="179.037" y2="66.7667" gradientUnits="userSpaceOnUse">
<stop stop-color="#DE0F79"/>
<stop offset="0.13" stop-color="#CE3C8E"/>
<stop offset="0.27" stop-color="#BE68A3"/>
<stop offset="0.42" stop-color="#B18DB4"/>
<stop offset="0.57" stop-color="#A7A9C1"/>
<stop offset="0.71" stop-color="#A0BECA"/>
<stop offset="0.86" stop-color="#9BCAD0"/>
<stop offset="1" stop-color="#9ACED2"/>
</linearGradient>
</defs>
</svg>
