<svg id="Layer_1" data-name="Layer 1" xmlns="http://www.w3.org/2000/svg" xmlns:xlink="http://www.w3.org/1999/xlink" viewBox="0 0 158 156"><defs><style>.cls-1{fill:url(#linear-gradient);}.cls-2{fill:#132a35;}.cls-3{fill:#faec6e;}</style><linearGradient id="linear-gradient" x1="37.05" y1="117.07" x2="126.05" y2="48.17" gradientUnits="userSpaceOnUse"><stop offset="0" stop-color="#de0f79"/><stop offset="0.13" stop-color="#ce3c8e"/><stop offset="0.27" stop-color="#be68a3"/><stop offset="0.42" stop-color="#b18db4"/><stop offset="0.57" stop-color="#a7a9c1"/><stop offset="0.71" stop-color="#a0beca"/><stop offset="0.86" stop-color="#9bcad0"/><stop offset="1" stop-color="#9aced2"/></linearGradient></defs><path class="cls-1" d="M76.53,56.43a38.62,38.62,0,0,1-.6,19.29A61.08,61.08,0,0,1,67,93.28c.33.33.17.23.58.63l1-1.33A132.5,132.5,0,0,0,79.31,75.37c8-15,18.65-28,31.12-39.49l6.16-5.66L133.37,50.4c-1.76,1.39-3.46,2.72-5.14,4.06A186.58,186.58,0,0,0,98.94,83.15a109.5,109.5,0,0,0-17,28.8c-.1.23-.19.46-.3.69,0,.06-.1.1-.15.15-2-7.07-2-21.89,10-36.5l-1.09-1c-1.51,2.14-3,4-4.25,6.1q-4.71,7.79-9.2,15.7a145.51,145.51,0,0,1-27,34.1c-2.49,2.37-5,4.69-7.54,7-.29.27-.59.51-1,.83L24.63,118.84l1.71-1.35A198.87,198.87,0,0,0,55.86,90C64.32,80.11,71.4,69.4,76.15,57.24,76.26,57,76.41,56.7,76.53,56.43Z"/><path class="cls-2" d="M69.42,65.36l-.35-1c-1.45-4.54-4.87-6.59-9.54-5.66a23.31,23.31,0,0,0-10.34,5.43c-2.12,1.78-4.07,3.77-6.19,5.75C37.65,62,32.24,54.13,26.71,46c2-1.78,3.91-3.64,6-5.3,6.85-5.45,14.47-9.23,23.24-10.39A25.44,25.44,0,0,1,68,31.24c5.25,1.87,8,5.73,8.6,11.16a27.86,27.86,0,0,1-2.77,14.93c-1.15,2.53-2.6,4.91-3.92,7.35A5,5,0,0,1,69.42,65.36Z"/><path class="cls-3" d="M131.65,122.46a53.34,53.34,0,0,1-8.88,7.66,45.89,45.89,0,0,1-20.19,8.16,26.37,26.37,0,0,1-11.48-.69,12.63,12.63,0,0,1-9.31-11.54,29.17,29.17,0,0,1,3.08-15.42c1.17-2.51,2.57-4.91,3.87-7.36l.31.06c.12.35.24.7.35,1,1.45,4.42,5,6.47,9.54,5.51a24.21,24.21,0,0,0,10.76-5.79c2-1.68,3.77-3.55,5.72-5.41Z"/></svg>