<svg id="Layer_1" data-name="Layer 1" xmlns="http://www.w3.org/2000/svg" viewBox="0 0 158 156"><defs><style>.cls-1{fill:#132a35;}</style></defs><path class="cls-1" d="M77.89,43.46a43.85,43.85,0,0,1-.68,21.9A69.66,69.66,0,0,1,67.12,85.3c.37.36.18.25.65.71.45-.57.81-1,1.17-1.52A150.91,150.91,0,0,0,81.05,65c9.1-17,21.17-31.76,35.32-44.82l7-6.43,19,22.91c-2,1.58-3.92,3.08-5.83,4.61A210.77,210.77,0,0,0,103.33,73.8,124.43,124.43,0,0,0,84,106.48c-.11.27-.22.53-.34.79,0,.07-.11.11-.17.17-2.26-8-2.31-24.85,11.37-41.43l-1.25-1.18c-1.7,2.43-3.41,4.58-4.82,6.92C85.2,77.64,81.7,83.58,78.32,89.57a165.44,165.44,0,0,1-30.69,38.72c-2.83,2.68-5.7,5.31-8.55,8-.33.3-.67.58-1.08.94-6.36-7.64-12.64-15.2-19-22.89l2-1.52a226.85,226.85,0,0,0,33.5-31.25c9.61-11.19,17.64-23.35,23-37.15C77.58,44.07,77.75,43.77,77.89,43.46Z"/><path class="cls-1" d="M69.82,53.6c-.17-.47-.29-.8-.4-1.14C67.78,47.31,63.89,45,58.6,46c-4.52.9-8.3,3.27-11.75,6.17-2.4,2-4.62,4.27-7,6.52L21.33,31.64c2.27-2,4.44-4.14,6.8-6,7.76-6.19,16.42-10.48,26.37-11.8a28.77,28.77,0,0,1,13.72,1c6,2.12,9,6.51,9.77,12.66.7,6-.71,11.59-3.15,17-1.3,2.86-3,5.57-4.45,8.34A5.93,5.93,0,0,1,69.82,53.6Z"/><path class="cls-1" d="M140.46,118.42a60.67,60.67,0,0,1-10.08,8.69,52.1,52.1,0,0,1-22.92,9.26,29.89,29.89,0,0,1-13-.78c-6.29-2-9.93-6.54-10.57-13.09-.61-6.2.91-12,3.49-17.51,1.33-2.85,2.93-5.57,4.4-8.35l.36.06.39,1.19c1.64,5,5.63,7.35,10.83,6.26,4.71-1,8.63-3.51,12.21-6.57,2.23-1.92,4.28-4,6.5-6.14Z"/></svg>