<svg id="Layer_1" data-name="Layer 1" xmlns="http://www.w3.org/2000/svg" viewBox="0 0 158 156"><defs><style>.cls-1{fill:#fff;}</style></defs><path class="cls-1" d="M77,49a44,44,0,0,1-.68,21.9A69.66,69.66,0,0,1,66.21,90.84c.37.36.18.25.65.71L68,90A151.7,151.7,0,0,0,80.14,70.5c9.1-17,21.16-31.76,35.32-44.82l7-6.43,19,22.91c-2,1.58-3.93,3.08-5.84,4.61a211.63,211.63,0,0,0-33.25,32.57A124.67,124.67,0,0,0,83.06,112c-.11.27-.22.53-.34.79,0,.07-.11.11-.17.17-2.26-8-2.31-24.85,11.36-41.43l-1.24-1.18C91,72.8,89.26,75,87.85,77.29c-3.56,5.89-7.06,11.83-10.44,17.82a165.7,165.7,0,0,1-30.69,38.72c-2.83,2.68-5.7,5.31-8.56,8-.32.3-.66.59-1.08.94l-19-22.88L20,118.32A226.43,226.43,0,0,0,53.51,87.07c9.61-11.19,17.64-23.35,23-37.15C76.67,49.61,76.84,49.31,77,49Z"/><path class="cls-1" d="M68.9,59.14c-.16-.47-.28-.8-.39-1.13-1.65-5.16-5.53-7.48-10.83-6.43-4.51.9-8.29,3.27-11.74,6.17-2.41,2-4.62,4.27-7,6.53-6.08-8.91-12.22-17.89-18.5-27.1,2.27-2,4.44-4.14,6.79-6C35,25,43.64,20.68,53.59,19.36a28.78,28.78,0,0,1,13.72,1.05c6,2.13,9,6.51,9.77,12.67.7,6-.71,11.58-3.15,17-1.3,2.86-3,5.57-4.45,8.34A6.16,6.16,0,0,1,68.9,59.14Z"/><path class="cls-1" d="M139.55,124a61.08,61.08,0,0,1-10.08,8.69,52.1,52.1,0,0,1-22.92,9.26,29.89,29.89,0,0,1-13-.78c-6.29-2-9.93-6.54-10.57-13.09-.61-6.2.91-12,3.49-17.51,1.33-2.85,2.92-5.57,4.4-8.35l.35.06c.13.4.27.79.4,1.19,1.64,5,5.63,7.35,10.82,6.26,4.72-1,8.63-3.51,12.21-6.57,2.24-1.92,4.29-4,6.51-6.14Z"/></svg>