<svg width="31" height="30" viewBox="0 0 31 30" fill="none" xmlns="http://www.w3.org/2000/svg">
<g clip-path="url(#clip0_847_38657)">
<path d="M11.3766 0.987401C8.37913 2.02725 5.79412 4.00092 4.00126 6.6185C2.2084 9.23608 1.3022 12.3596 1.41576 15.5303C1.52931 18.701 2.65665 21.7517 4.63217 24.2343C6.60769 26.7169 9.32726 28.5006 12.3914 29.3233C14.8756 29.9643 17.4783 29.9925 19.9758 29.4054C22.2383 28.8972 24.33 27.8101 26.0461 26.2507C27.8323 24.5781 29.1287 22.4502 29.7961 20.096C30.5216 17.5358 30.6507 14.8435 30.1735 12.2257H16.2235V18.0124H24.3024C24.1409 18.9353 23.7949 19.8162 23.2851 20.6023C22.7752 21.3884 22.112 22.0636 21.3352 22.5874C20.3487 23.24 19.2366 23.6791 18.0703 23.8765C16.9007 24.094 15.7009 24.094 14.5313 23.8765C13.3458 23.6314 12.2243 23.1421 11.2383 22.4397C9.65429 21.3185 8.4649 19.7255 7.83988 17.8882C7.20429 16.0164 7.20429 13.9873 7.83988 12.1155C8.28478 10.8035 9.02027 9.60897 9.99144 8.62099C11.1028 7.46962 12.5099 6.64661 14.0582 6.24227C15.6065 5.83792 17.2363 5.86786 18.7688 6.32881C19.9659 6.69629 21.0606 7.33835 21.9657 8.20381C22.8766 7.29756 23.786 6.38896 24.6938 5.47803C25.1625 4.98818 25.6735 4.52178 26.1352 4.02021C24.7537 2.73461 23.1321 1.73425 21.3633 1.07646C18.1423 -0.0930916 14.6179 -0.124522 11.3766 0.987401Z" fill="white"/>
<path d="M11.382 0.98854C14.6231 -0.124139 18.1475 -0.0935357 21.3687 1.07526C23.1378 1.73752 24.7587 2.74269 26.1383 4.03307C25.6695 4.53463 25.175 5.00338 24.6969 5.49088C23.7875 6.3987 22.8789 7.30338 21.9711 8.20495C21.066 7.33949 19.9713 6.69743 18.7742 6.32995C17.2423 5.86739 15.6125 5.83571 14.0638 6.23841C12.515 6.6411 11.1071 7.46259 9.99453 8.61276C9.02336 9.60073 8.28787 10.7953 7.84297 12.1073L2.98438 8.34557C4.72346 4.89689 7.73457 2.25891 11.382 0.98854Z" fill="#E33629"/>
<path d="M1.69687 12.0703C1.95801 10.7761 2.39156 9.52272 2.98593 8.34375L7.84452 12.1148C7.20893 13.9866 7.20893 16.0158 7.84452 17.8875C6.22577 19.1375 4.60624 20.3938 2.98593 21.6562C1.498 18.6945 1.04421 15.3199 1.69687 12.0703Z" fill="#F8BD00"/>
<path d="M16.2276 12.2227H30.1776C30.6548 14.8405 30.5257 17.5328 29.8003 20.093C29.1328 22.4472 27.8364 24.575 26.0503 26.2477C24.4823 25.0242 22.9073 23.8102 21.3393 22.5867C22.1167 22.0624 22.7802 21.3865 23.2901 20.5995C23.7999 19.8126 24.1456 18.9308 24.3065 18.007H16.2276C16.2253 16.0805 16.2276 14.1516 16.2276 12.2227Z" fill="#587DBD"/>
<path d="M2.98438 21.6555C4.60469 20.4055 6.22422 19.1492 7.84297 17.8867C8.46924 19.7247 9.66032 21.3177 11.2461 22.4383C12.2352 23.1373 13.3591 23.6227 14.5461 23.8633C15.7158 24.0808 16.9155 24.0808 18.0852 23.8633C19.2514 23.6659 20.3635 23.2268 21.35 22.5742C22.918 23.7977 24.493 25.0117 26.0609 26.2352C24.3451 27.7955 22.2533 28.8833 19.9906 29.3922C17.4931 29.9793 14.8904 29.9512 12.4062 29.3102C10.4415 28.7856 8.60627 27.8608 7.01562 26.5938C5.33202 25.2571 3.95693 23.5726 2.98438 21.6555Z" fill="#319F43"/>
</g>
<defs>
<clipPath id="clip0_847_38657">
<rect width="30" height="30" fill="white" transform="translate(0.929688)"/>
</clipPath>
</defs>
</svg>
