<svg width="477" height="43" viewBox="0 0 477 43" fill="none" xmlns="http://www.w3.org/2000/svg">
<g clip-path="url(#clip0_1196_6940)">
<path fill-rule="evenodd" clip-rule="evenodd" d="M3.55048 13.2389C3.55048 14.3899 4.00773 15.4938 4.82164 16.3078C5.63554 17.1217 6.73944 17.5789 7.89048 17.5789C9.04152 17.5789 10.1454 17.1217 10.9593 16.3078C11.7732 15.4938 12.2305 14.3899 12.2305 13.2389C12.2305 12.0879 11.7732 10.984 10.9593 10.1701C10.1454 9.35616 9.04152 8.89891 7.89048 8.89891C6.73944 8.89891 5.63554 9.35616 4.82164 10.1701C4.00773 10.984 3.55048 12.0879 3.55048 13.2389ZM7.89048 20.0989C6.42172 20.0987 4.99179 19.6272 3.81107 18.7536C2.63035 17.88 1.76118 16.6505 1.33145 15.246C0.901711 13.8415 0.934097 12.3362 1.42384 10.9515C1.91358 9.56681 2.83482 8.37585 4.05202 7.55385C5.26922 6.73185 6.71811 6.32222 8.18552 6.38522C9.65292 6.44823 11.0614 6.98054 12.2036 7.90384C13.3459 8.82714 14.1617 10.0927 14.5309 11.5143C14.9002 12.9359 14.8034 14.4384 14.2549 15.8009L16.9541 17.6041L16.8981 17.7945L16.4669 19.3345L15.4785 19.9953L12.6953 18.1361C11.4577 19.3485 9.76088 20.0989 7.89048 20.0989ZM3.55048 30.0809C3.55048 28.9299 4.00773 27.826 4.82164 27.0121C5.63554 26.1982 6.73944 25.7409 7.89048 25.7409C9.04152 25.7409 10.1454 26.1982 10.9593 27.0121C11.7732 27.826 12.2305 28.9299 12.2305 30.0809C12.2305 31.2319 11.7732 32.3358 10.9593 33.1498C10.1454 33.9637 9.04152 34.4209 7.89048 34.4209C6.73944 34.4209 5.63554 33.9637 4.82164 33.1498C4.00773 32.3358 3.55048 31.2319 3.55048 30.0809ZM7.89048 23.2209C6.42301 23.2211 4.99426 23.6918 3.8141 24.564C2.63394 25.4362 1.76456 26.6638 1.33366 28.0666C0.902754 29.4694 0.933044 30.9733 1.42008 32.3576C1.90711 33.7419 2.82521 34.9336 4.03953 35.7575C5.25386 36.5815 6.7004 36.9943 8.16668 36.9354C9.63297 36.8765 11.0417 36.3489 12.186 35.4302C13.3303 34.5114 14.1498 33.25 14.5242 31.8311C14.8986 30.4122 14.8081 28.9106 14.2661 27.5469L42.8905 8.40051L40.2277 8.68051C36.4726 9.07564 32.8362 10.2262 29.5373 12.0629L20.9273 16.8509C20.6039 17.0315 20.3197 17.2745 20.0909 17.5658C19.8621 17.857 19.6934 18.1908 19.5945 18.5477L18.8861 21.0845L12.7177 25.2089C11.4352 23.9334 9.69927 23.2184 7.89048 23.2209ZM20.8937 26.4829L20.9273 26.5025L29.5373 31.2905C32.8362 33.1272 36.4726 34.2778 40.2277 34.6729L42.8905 34.9529L25.5585 23.3609L20.8937 26.4829Z" fill="#E5348C"/>
</g>
<path d="M75.5546 31.6797L72.4106 31.6797L72.4106 18.9117L67.3226 18.9117L67.3226 16.3197L80.6186 16.3197L80.6186 18.9117L75.5546 18.9117L75.5546 31.6797ZM91.0403 31.6797L89.9363 28.0797L83.3843 28.0797L82.2562 31.6797L79.0402 31.6797L84.1763 16.3197L89.4083 16.3197L94.3763 31.6797L91.0403 31.6797ZM83.9603 26.1117L89.3843 26.1117L86.8163 18.0957L86.5523 18.0957L83.9603 26.1117ZM96.7247 16.3197L99.8687 16.3197L99.8687 31.6797L96.7247 31.6797L96.7247 16.3197ZM114.916 31.6797L103.732 31.6797L103.733 16.3437L106.901 16.3437L106.901 29.0877L114.916 29.0877L114.916 31.6797ZM115.94 23.9997C115.94 18.3117 119.804 16.1517 124.34 16.1517C128.924 16.1517 132.74 18.3117 132.74 23.9997C132.74 29.5917 128.9 31.8477 124.34 31.8477C119.804 31.8477 115.94 29.5677 115.94 23.9997ZM124.34 29.2077C127.316 29.2077 129.572 27.8397 129.572 23.9997C129.572 20.0637 127.316 18.7917 124.34 18.7917C121.364 18.7917 119.108 20.0397 119.108 23.9997C119.108 27.8397 121.364 29.2077 124.34 29.2077ZM145.308 31.6797L143.82 27.3837C143.556 26.6157 143.364 25.8957 141.804 25.8957L138.588 25.8717L138.588 31.6797L135.42 31.6797L135.42 16.3197L142.932 16.3197C145.956 16.3197 148.356 17.6637 148.356 21.2637C148.356 23.6397 146.964 24.9357 144.276 24.9357L144.276 25.0557C145.188 25.1997 146.532 25.4157 147.108 27.0477L148.74 31.6797L145.308 31.6797ZM138.588 23.8317L141.804 23.8317C143.796 23.8317 145.308 23.4717 145.308 21.2637C145.308 19.2957 143.892 18.9117 141.972 18.9117L138.588 18.9117L138.588 23.8317ZM163.33 31.6797L151.498 31.6797L151.498 16.3197L163.018 16.3197L163.018 18.9117L154.666 18.9117L154.666 22.8477L162.466 22.8477L162.466 25.1517L154.666 25.1517L154.666 29.0877L163.33 29.0877L163.33 31.6797ZM173.875 31.6797L166.123 31.6797L166.123 16.3197L173.995 16.3197C178.867 16.3197 181.435 19.3917 181.435 23.9997C181.435 28.6317 178.771 31.6797 173.875 31.6797ZM169.291 18.9117L169.291 29.0877L173.731 29.0877C176.587 29.0877 178.291 27.4317 178.291 23.9997C178.291 20.5917 176.491 18.9117 173.611 18.9117L169.291 18.9117ZM196.68 31.6797L193.536 31.6797L193.536 18.9117L188.448 18.9117L188.448 16.3197L201.744 16.3197L201.744 18.9117L196.68 18.9117L196.68 31.6797ZM202.705 23.9997C202.705 18.3117 206.57 16.1517 211.106 16.1517C215.69 16.1517 219.506 18.3117 219.506 23.9997C219.506 29.5917 215.666 31.8477 211.106 31.8477C206.569 31.8477 202.705 29.5677 202.705 23.9997ZM211.106 29.2077C214.082 29.2077 216.338 27.8397 216.338 23.9997C216.338 20.0637 214.082 18.7917 211.106 18.7917C208.13 18.7917 205.874 20.0397 205.873 23.9997C205.873 27.8397 208.13 29.2077 211.106 29.2077ZM235.702 31.6797L232.582 31.6797L232.582 26.8077L226.438 16.3437L229.918 16.3437L234.214 23.6157L238.534 16.3437L241.99 16.3437L235.702 26.8077L235.702 31.6797ZM242.409 23.9997C242.409 18.3117 246.273 16.1517 250.809 16.1517C255.393 16.1517 259.209 18.3117 259.209 23.9997C259.209 29.5917 255.369 31.8477 250.809 31.8477C246.273 31.8477 242.409 29.5677 242.409 23.9997ZM250.809 29.2077C253.785 29.2077 256.041 27.8397 256.041 23.9997C256.041 20.0637 253.785 18.7917 250.809 18.7917C247.833 18.7917 245.577 20.0397 245.577 23.9997C245.577 27.8397 247.833 29.2077 250.809 29.2077ZM261.457 16.3197L264.625 16.3197L264.625 25.7517C264.625 28.2957 265.897 29.2077 268.249 29.2077C270.745 29.2077 271.945 28.2717 271.945 25.7517L271.945 16.3197L275.041 16.3197L275.041 25.8237C275.041 29.3997 273.025 31.8477 268.225 31.8477C263.593 31.8477 261.457 29.3997 261.457 25.8237L261.457 16.3197ZM288.347 31.6797L286.859 27.3837C286.595 26.6157 286.403 25.8957 284.843 25.8957L281.627 25.8717L281.627 31.6797L278.459 31.6797L278.459 16.3197L285.971 16.3197C288.995 16.3197 291.395 17.6637 291.395 21.2637C291.395 23.6397 290.003 24.9357 287.315 24.9357L287.315 25.0557C288.227 25.1997 289.571 25.4157 290.147 27.0477L291.779 31.6797L288.347 31.6797ZM281.627 23.8317L284.843 23.8317C286.835 23.8317 288.347 23.4717 288.347 21.2637C288.347 19.2957 286.931 18.9117 285.011 18.9117L281.627 18.9117L281.627 23.8317ZM299.918 16.3197L303.086 16.3197L303.086 25.7517C303.086 28.2957 304.358 29.2077 306.71 29.2077C309.206 29.2077 310.406 28.2717 310.406 25.7517L310.406 16.3197L313.502 16.3197L313.502 25.8237C313.502 29.3997 311.486 31.8477 306.686 31.8477C302.054 31.8477 299.918 29.3997 299.918 25.8237L299.918 16.3197ZM331.344 16.3197L331.344 31.6797L326.496 31.6797L319.992 19.2477L319.992 31.6797L316.824 31.6797L316.824 16.3197L321.72 16.3197L328.2 28.7757L328.2 16.3197L331.344 16.3197ZM335.108 16.3197L338.252 16.3197L338.252 31.6797L335.107 31.6797L335.108 16.3197ZM346.531 31.5117L346.531 31.7757C346.531 32.3997 346.939 32.7117 347.539 32.7597L355.651 33.4317L355.651 35.9997L346.867 35.2557C346.267 35.2077 345.499 34.9917 345.499 33.9357L345.499 31.1997C342.835 30.2157 340.963 27.9837 340.963 24.0237C340.963 18.3117 344.851 16.1517 349.387 16.1517C353.947 16.1517 357.763 18.3117 357.763 24.0237C357.763 29.9037 353.923 31.7757 349.099 31.8477C348.211 31.8237 347.347 31.7277 346.531 31.5117ZM349.387 29.2317C352.363 29.2317 354.595 27.9837 354.595 24.0237C354.595 20.0637 352.363 18.7917 349.387 18.7917C346.387 18.7917 344.131 20.0397 344.131 24.0237C344.131 27.9837 346.387 29.2317 349.387 29.2317ZM359.965 16.3197L363.133 16.3197L363.133 25.7517C363.133 28.2957 364.405 29.2077 366.757 29.2077C369.253 29.2077 370.453 28.2717 370.453 25.7517L370.453 16.3197L373.549 16.3197L373.549 25.8237C373.549 29.3997 371.533 31.8477 366.733 31.8477C362.101 31.8477 359.965 29.3997 359.965 25.8237L359.965 16.3197ZM388.799 31.6797L376.967 31.6797L376.967 16.3197L388.487 16.3197L388.487 18.9117L380.135 18.9117L380.135 22.8477L387.935 22.8477L387.935 25.1517L380.135 25.1517L380.135 29.0877L388.799 29.0877L388.799 31.6797ZM411.828 16.3197L411.828 31.6797L406.98 31.6797L400.476 19.2477L400.476 31.6797L397.308 31.6797L397.308 16.3197L402.204 16.3197L408.684 28.7757L408.684 16.3197L411.828 16.3197ZM427.424 31.6797L415.592 31.6797L415.592 16.3197L427.112 16.3197L427.112 18.9117L418.76 18.9117L418.76 22.8477L426.56 22.8477L426.56 25.1517L418.76 25.1517L418.76 29.0877L427.424 29.0877L427.424 31.6797ZM442.049 31.6797L430.217 31.6797L430.217 16.3197L441.737 16.3197L441.737 18.9117L433.385 18.9117L433.385 22.8477L441.185 22.8477L441.185 25.1517L433.385 25.1517L433.385 29.0877L442.049 29.0877L442.049 31.6797ZM452.594 31.6797L444.842 31.6797L444.842 16.3197L452.714 16.3197C457.586 16.3197 460.154 19.3917 460.154 23.9997C460.154 28.6317 457.49 31.6797 452.594 31.6797ZM448.01 18.9117L448.01 29.0877L452.45 29.0877C455.306 29.0877 457.01 27.4317 457.01 23.9997C457.01 20.5917 455.21 18.9117 452.33 18.9117L448.01 18.9117ZM475.418 20.9997L472.394 20.9997C472.226 19.2237 470.426 18.7437 468.65 18.6717C466.85 18.5997 465.074 19.1997 465.218 20.7597C465.506 23.9277 475.418 21.5997 475.49 27.6717C475.538 31.2957 471.794 31.8477 469.034 31.8477C464.45 31.8477 462.05 29.8077 462.002 26.8077L465.074 26.8077C465.146 28.5357 466.946 29.2797 468.746 29.3037C470.594 29.3277 472.538 29.0877 472.418 27.5277C472.178 24.3597 462.53 26.6877 462.194 21.0237C462.026 17.8077 464.282 16.0797 468.674 16.0797C473.402 16.0797 475.274 18.5037 475.418 20.9997Z" fill="white"/>
<defs>
<clipPath id="clip0_1196_6940">
<rect width="42" height="42" fill="white" transform="translate(0.890625 0.679688)"/>
</clipPath>
</defs>
</svg>
