<svg width="45" height="46" viewBox="0 0 45 46" fill="none" xmlns="http://www.w3.org/2000/svg">
<g clip-path="url(#clip0_1214_3187)">
<path fill-rule="evenodd" clip-rule="evenodd" d="M3.53422 15.6816C3.61512 16.8298 4.14882 17.8988 5.01792 18.6535C5.88702 19.4082 7.02032 19.7867 8.16852 19.7058C9.31671 19.6249 10.3857 19.0912 11.1404 18.2221C11.8951 17.353 12.2736 16.2197 12.1927 15.0715C12.1118 13.9233 11.5781 12.8543 10.709 12.0996C9.83994 11.3449 8.70664 10.9664 7.55845 11.0473C6.41025 11.1282 5.34123 11.6619 4.58654 12.531C3.83185 13.4001 3.45331 14.5334 3.53422 15.6816ZM8.34564 22.2196C6.8805 22.3227 5.42096 21.9528 4.18176 21.1643C2.94256 20.3759 1.98913 19.2105 1.46174 17.8397C0.934353 16.4689 0.860857 14.965 1.25207 13.5493C1.64327 12.1336 2.47853 10.8809 3.63494 9.97535C4.79136 9.06983 6.20787 8.55938 7.67608 8.51909C9.14429 8.4788 10.5867 8.91081 11.791 9.75154C12.9953 10.5923 13.898 11.7974 14.3663 13.1895C14.8345 14.5816 14.8436 16.0872 14.3922 17.4849L17.2115 19.0939L17.169 19.2878L16.8471 20.8543L15.9076 21.5829L13.0006 19.9239C11.8513 21.2203 10.2114 22.0881 8.34564 22.2196ZM4.71795 32.482C4.63705 31.3338 5.01558 30.2005 5.77027 29.3314C6.52496 28.4623 7.59399 27.9285 8.74218 27.8476C9.89037 27.7667 11.0237 28.1453 11.8928 28.9C12.7619 29.6547 13.2956 30.7237 13.3765 31.8719C13.4574 33.0201 13.0789 34.1534 12.3242 35.0225C11.5695 35.8916 10.5004 36.4253 9.35225 36.5062C8.20406 36.5871 7.07076 36.2086 6.20166 35.4539C5.33256 34.6992 4.79885 33.6301 4.71795 32.482ZM8.56506 25.3339C7.10123 25.4372 5.70911 26.0072 4.59316 26.9601C3.47722 27.9131 2.69627 29.1988 2.36503 30.6284C2.03379 32.058 2.16971 33.5561 2.75283 34.9028C3.33596 36.2494 4.33554 37.3736 5.60477 38.1101C6.874 38.8467 8.34598 39.1569 9.8045 38.995C11.263 38.8332 12.6312 38.2079 13.7081 37.211C14.785 36.2142 15.5138 34.8982 15.7876 33.4565C16.0613 32.0148 15.8655 30.5233 15.2289 29.2011L42.4369 8.09016L39.8003 8.55663C36.0823 9.21471 32.5358 10.618 29.3741 12.682L21.1219 18.0633C20.8121 18.2662 20.5456 18.5286 20.3378 18.8352C20.1301 19.1418 19.9852 19.4866 19.9117 19.8496L19.3833 22.4299L13.5201 26.9777C12.1511 25.7954 10.3692 25.2043 8.56506 25.3339ZM21.7654 27.6739L21.8003 27.6911L30.7255 31.8621C34.1454 33.4624 37.8536 34.3545 41.6272 34.4847L44.3031 34.5769L26.1992 24.2317L21.7654 27.6739Z" fill="#E5348C"/>
</g>
<defs>
<clipPath id="clip0_1214_3187">
<rect width="42" height="42" fill="white" transform="translate(0 3.33984) rotate(-4.03034)"/>
</clipPath>
</defs>
</svg>
